<?xml version="1.0" standalone="no"?>
<!DOCTYPE svg PUBLIC "-//W3C//DTD SVG 20010904//EN"
 "http://www.w3.org/TR/2001/REC-SVG-20010904/DTD/svg10.dtd">
<svg version="1.0" xmlns="http://www.w3.org/2000/svg"
 width="200.000000pt" height="200.000000pt" viewBox="0 0 200.000000 200.000000"
 preserveAspectRatio="xMidYMid meet">
<metadata>
Created by potrace 1.11, written by Peter Selinger 2001-2013
</metadata>
<g transform="translate(0.000000,200.000000) scale(0.100000,-0.100000)"
fill="#000000" stroke="none">
<path d="M865 1991 c-404 -66 -717 -348 -823 -740 -22 -84 -25 -116 -25 -251
0 -135 3 -167 26 -252 112 -420 473 -718 902 -745 427 -26 825 228 983 628 50
126 67 219 67 369 0 156 -17 245 -74 385 l-36 90 -6 -142 c-4 -78 -12 -203
-19 -277 l-13 -136 -48 0 c-44 0 -48 2 -53 28 -15 71 -27 260 -33 500 l-6 263
-46 41 c-114 100 -265 179 -419 219 -86 22 -294 33 -377 20z m125 -249 c0 -5
-11 -69 -25 -143 -14 -74 -25 -142 -25 -151 0 -16 13 -18 129 -18 115 0 130 2
135 18 2 9 12 58 21 107 8 50 20 114 26 143 l10 52 64 0 c35 0 66 -3 68 -7 3
-7 -15 -118 -47 -285 l-5 -27 72 -3 72 -3 3 -62 3 -62 -88 -3 -88 -3 -27 -145
c-15 -80 -27 -148 -27 -152 -1 -4 50 -9 112 -10 l112 -3 3 -62 3 -62 -127 -3
-128 -3 -22 -125 c-13 -69 -26 -140 -29 -158 l-6 -32 -71 0 c-68 0 -70 1 -65
23 3 12 15 76 27 142 12 66 23 128 26 138 5 16 -6 17 -130 17 -75 0 -136 -3
-137 -7 0 -5 -13 -75 -28 -158 l-27 -150 -71 -3 c-64 -3 -71 -1 -67 15 4 20
54 294 54 300 0 1 -31 3 -70 3 l-70 0 0 65 0 65 83 0 82 0 24 133 c12 72 25
142 28 155 5 22 4 22 -106 22 l-111 0 0 65 0 65 123 0 123 0 27 151 c15 84 30
156 33 160 7 12 134 12 134 1z m859 -1007 c98 -50 61 -215 -49 -215 -23 0 -50
5 -61 10 -28 15 -49 63 -49 111 0 33 6 47 34 75 38 38 77 44 125 19z"/>
<path d="M904 1263 c-3 -21 -16 -91 -29 -155 l-22 -118 133 0 c118 0 133 2
138 18 3 9 14 71 26 137 12 66 23 128 26 138 5 16 -6 17 -130 17 l-135 0 -7
-37z"/>
</g>
</svg>
